<?xml version="1.0" encoding="UTF-8" standalone="no"?>
<svg width="651px" height="681px" viewBox="0 0 651 681" version="1.1" xmlns="http://www.w3.org/2000/svg" xmlns:xlink="http://www.w3.org/1999/xlink" xmlns:sketch="http://www.bohemiancoding.com/sketch/ns">
    <!-- Generator: Sketch 3.3 (11970) - http://www.bohemiancoding.com/sketch -->
    <title>logo</title>
    <desc>Created with Sketch.</desc>
    <defs>
        <filter x="-50%" y="-50%" width="200%" height="200%" filterUnits="objectBoundingBox" id="filter-1">
            <feOffset dx="-10" dy="10" in="SourceAlpha" result="shadowOffsetOuter1"></feOffset>
            <feGaussianBlur stdDeviation="0" in="shadowOffsetOuter1" result="shadowBlurOuter1"></feGaussianBlur>
            <feColorMatrix values="0 0 0 0 0   0 0 0 0 0   0 0 0 0 0  0 0 0 0.35 0" in="shadowBlurOuter1" type="matrix" result="shadowMatrixOuter1"></feColorMatrix>
            <feMerge>
                <feMergeNode in="shadowMatrixOuter1"></feMergeNode>
                <feMergeNode in="SourceGraphic"></feMergeNode>
            </feMerge>
        </filter>
        <filter x="-50%" y="-50%" width="200%" height="200%" filterUnits="objectBoundingBox" id="filter-2">
            <feOffset dx="10" dy="2" in="SourceAlpha" result="shadowOffsetOuter1"></feOffset>
            <feGaussianBlur stdDeviation="0" in="shadowOffsetOuter1" result="shadowBlurOuter1"></feGaussianBlur>
            <feColorMatrix values="0 0 0 0 0   0 0 0 0 0   0 0 0 0 0  0 0 0 0.35 0" in="shadowBlurOuter1" type="matrix" result="shadowMatrixOuter1"></feColorMatrix>
            <feMerge>
                <feMergeNode in="shadowMatrixOuter1"></feMergeNode>
                <feMergeNode in="SourceGraphic"></feMergeNode>
            </feMerge>
        </filter>
        <filter x="-50%" y="-50%" width="200%" height="200%" filterUnits="objectBoundingBox" id="filter-3">
            <feOffset dx="0" dy="10" in="SourceAlpha" result="shadowOffsetOuter1"></feOffset>
            <feGaussianBlur stdDeviation="0" in="shadowOffsetOuter1" result="shadowBlurOuter1"></feGaussianBlur>
            <feColorMatrix values="0 0 0 0 0   0 0 0 0 0   0 0 0 0 0  0 0 0 0.35 0" in="shadowBlurOuter1" type="matrix" result="shadowMatrixOuter1"></feColorMatrix>
            <feMerge>
                <feMergeNode in="shadowMatrixOuter1"></feMergeNode>
                <feMergeNode in="SourceGraphic"></feMergeNode>
            </feMerge>
        </filter>
    </defs>
    <g id="Page-1" stroke="none" stroke-width="1" fill="none" fill-rule="evenodd" sketch:type="MSPage">
        <g id="logo" sketch:type="MSLayerGroup">
            <path d="M0,114.090206 L321.923077,0.770618557 L651,112.319588 L597.346154,530.185567 L321.923077,680.688144 L50.0769231,531.956186 L0,114.090206 Z" id="path17" fill="#000000" sketch:type="MSShapeGroup"></path>
            <path d="M0,114.090206 L321.923077,0.770618557 L321.923077,680.688144 L50.0769231,531.956186 L0,114.090206 Z" id="path19" fill="#DE3641" sketch:type="MSShapeGroup"></path>
            <path d="M321.923077,0.770618557 L651,112.319588 L597.346154,530.185567 L321.923077,680.688144 L321.923077,0.770618557 Z" id="path21" fill="#B13138" sketch:type="MSShapeGroup"></path>
            <g id="EBP" transform="translate(121.000000, 116.000000)" fill="#FFFFFF" sketch:type="MSShapeGroup">
                <path d="M2.3708614,115.852231 L1.68713415,158.169896 L165.889514,62.8697218 L166.079006,115.096347 L0.957100649,210.228466 L0.486671035,252.519637 L166.069577,156.052436 L166.074502,211.993952 L0.53625331,307.395138 L0.0189777504,343.951353 L199.11631,229.137283 L197.521411,3.10531787 L2.3708614,115.852231 Z" id="Path-1" filter="url(#filter-1)"></path>
                <path d="M235.325602,60.7750336 L346.117556,124.683475 L364.474095,151.938512 L364.592128,179.380145 L351.194168,184.602511 L235.074191,117.384917 L235.325602,60.7750336 Z M234.99747,158.933611 L352.349874,226.951659 L364.305307,246.27887 L364.495171,275.246881 L353.361782,279.036316 L234.99747,210.400198 L234.99747,158.933611 Z M202.9293,0.193368518 L377.679127,102.035681 L399.756916,135.422609 L399.776958,205.733254 L387.944542,211.703112 L399.742719,230.260101 L399.804516,311.848993 L365.092645,324.978031 L204.828159,230.914106 L202.9293,0.193368518 Z" id="Path-2" filter="url(#filter-2)"></path>
                <path d="M199.040539,273.767459 L310.672862,338.273996 L311.013273,350.12668 L284.116136,365.660158 L257.373994,365.660158 L148.908123,302.833718 L199.040539,273.767459 Z M200.508388,234.263989 L360.075696,327.834164 L357.493813,364.765909 L297.303411,399.816131 L244.695934,399.293404 L113.822171,323.28383 L37.1751481,367.379545 L2.75111975,348.522982 L200.508388,234.263989 Z" id="Path-5" filter="url(#filter-3)"></path>
            </g>
        </g>
    </g>
</svg>